<svg width="65" height="65" viewBox="0 0 65 65" fill="none" xmlns="http://www.w3.org/2000/svg">
<path d="M47.8473 47.8473H17.1528V17.1528H47.8473V47.8473Z" fill="white"/>
<path d="M25.2777 27.9861H27.986V30.6945H25.2777V27.9861Z" fill="#23244D"/>
<path d="M25.2777 33.4028H27.986V36.1111H25.2777V33.4028Z" fill="#23244D"/>
<path d="M27.986 25.2778H30.6943V27.9861H27.986V25.2778Z" fill="#23244D"/>
<path d="M27.986 36.1111H30.6943V38.8195H27.986V36.1111Z" fill="#23244D"/>
<path d="M36.5624 27.9861H39.2707V30.6945H36.5624V27.9861Z" fill="#23244D"/>
<path d="M36.5624 33.4028H39.2707V36.1111H36.5624V33.4028Z" fill="#23244D"/>
<path d="M39.2707 25.2778H41.9791V27.9861H39.2707V25.2778Z" fill="#23244D"/>
<path d="M39.2707 36.1111H41.9791V38.8195H39.2707V36.1111Z" fill="#23244D"/>
<path d="M22.5693 30.6945H25.2777V33.4028H22.5693V30.6945Z" fill="#23244D"/>
<path d="M33.8541 30.6945H36.5624V33.4028H33.8541V30.6945Z" fill="#23244D"/>
<path d="M47.8471 47.8472H50.5555V17.1528H47.8471V47.8472Z" fill="#23244D"/>
<path d="M17.1527 14.4445V17.1528L47.8471 17.1528V14.4445H17.1527Z" fill="#23244D"/>
<path d="M17.1527 17.1528H14.4443V47.8472H17.1527V17.1528Z" fill="#23244D"/>
<path d="M17.1527 47.8472V50.5556H47.8471V47.8472H17.1527Z" fill="#23244D"/>
</svg>
