<svg width="65" height="65" viewBox="0 0 65 65" fill="none" xmlns="http://www.w3.org/2000/svg">
<path d="M17.0084 47.7028H47.7029V17.0083H17.0084V47.7028Z" fill="#FFFFE9"/>
<path d="M39.5778 27.8417H36.8695V30.55H39.5778V27.8417Z" fill="#FFFFF9"/>
<path d="M39.5778 33.2583H36.8695V35.9667H39.5778V33.2583Z" fill="#FFFFF9"/>
<path d="M36.8695 25.1333H34.1611V27.8417H36.8695V25.1333Z" fill="#FFFFF9"/>
<path d="M36.8695 35.9667H34.1611V38.675H36.8695V35.9667Z" fill="#FFFFF9"/>
<path d="M28.2931 27.8417H25.5847V30.55H28.2931V27.8417Z" fill="#FFFFF9"/>
<path d="M28.2931 33.2583H25.5847V35.9667H28.2931V33.2583Z" fill="#FFFFF9"/>
<path d="M25.5847 25.1333H22.8764V27.8417H25.5847V25.1333Z" fill="#FFFFF9"/>
<path d="M25.5847 35.9667H22.8764V38.675H25.5847V35.9667Z" fill="#FFFFF9"/>
<path d="M42.2861 30.55H39.5778V33.2583H42.2861V30.55Z" fill="#FFFFF9"/>
<path d="M31.0014 30.55H28.2931V33.2583H31.0014V30.55Z" fill="#FFFFF9"/>
<path d="M17.0084 47.7028H14.3V17.0083H17.0084V47.7028Z" fill="#FFFFF9"/>
<path d="M47.7028 14.3V17.0083L17.0084 17.0083V14.3H47.7028Z" fill="#FFFFF9"/>
<path d="M47.7028 17.0083H50.4111V47.7028H47.7028V17.0083Z" fill="#FFFFF9"/>
<path d="M47.7028 47.7028V50.4111H17.0084V47.7028H47.7028Z" fill="#FFFFF9"/>
</svg>
