<svg width="50" height="50" viewBox="0 0 50 50" fill="none" xmlns="http://www.w3.org/2000/svg">
<path d="M21.5277 24.3055V22.2222H13.1944L13.1944 24.3055H21.5277Z" fill="#23244D"/>
<path d="M13.1944 13.8889L11.1111 13.8889L11.1111 22.2222H13.1944V13.8889Z" fill="#23244D"/>
<path d="M21.5277 13.8889V11.8055L13.1944 11.8055V13.8889L21.5277 13.8889Z" fill="#23244D"/>
<path d="M23.6111 13.8889L21.5277 13.8889V22.2222H23.6111V13.8889Z" fill="#23244D"/>
<path d="M27.7777 13.8889L25.6944 13.8889V22.2222H27.7777V13.8889Z" fill="#23244D"/>
<path d="M36.1111 13.8889V11.8055L27.7777 11.8055V13.8889L36.1111 13.8889Z" fill="#23244D"/>
<path d="M36.1111 24.3055V22.2222H27.7777V24.3055H36.1111Z" fill="#23244D"/>
<path d="M38.1944 13.8889L36.1111 13.8889V22.2222H38.1944V13.8889Z" fill="#23244D"/>
<path d="M13.1944 28.4722H11.1111L11.1111 36.8055H13.1944V28.4722Z" fill="#23244D"/>
<path d="M21.5277 28.4722V26.3889H13.1944V28.4722H21.5277Z" fill="#23244D"/>
<path d="M21.5277 38.8889V36.8055H13.1944L13.1944 38.8889H21.5277Z" fill="#23244D"/>
<path d="M23.6111 28.4722H21.5277V36.8055H23.6111V28.4722Z" fill="#23244D"/>
<path d="M27.7777 28.4722H25.6944V36.8055H27.7777V28.4722Z" fill="#23244D"/>
<path d="M36.1111 38.8889V36.8055H27.7777V38.8889H36.1111Z" fill="#23244D"/>
<path d="M38.1944 28.4722H36.1111V36.8055H38.1944V28.4722Z" fill="#23244D"/>
<path d="M36.1111 28.4722V26.3889H27.7777V28.4722H36.1111Z" fill="#23244D"/>
<path d="M13.1943 22.2222V13.8889H21.5277V22.2222H13.1943Z" fill="white"/>
<path d="M27.7777 22.2222V13.8889H36.111V22.2222H27.7777Z" fill="white"/>
<path d="M27.7777 36.8055V28.4722H36.111V36.8055H27.7777Z" fill="white"/>
<path d="M13.1943 28.4722V36.8055H21.5277V28.4722H13.1943Z" fill="white"/>
</svg>
