<svg width="50" height="50" viewBox="0 0 50 50" fill="none" xmlns="http://www.w3.org/2000/svg">
<path d="M27.0832 12.5L29.1666 12.5001L29.1666 10.4167H27.0832V12.5Z" fill="#FFFFF9"/>
<path d="M22.9166 12.5L20.8332 12.5001L20.8333 10.4167H22.9166V12.5Z" fill="#FFFFF9"/>
<path d="M37.4999 22.9167H39.5832V20.8333L37.4999 20.8334L37.4999 22.9167Z" fill="#FFFFF9"/>
<path d="M12.4999 22.9167H10.4166V20.8333H12.4999V22.9167Z" fill="#FFFFF9"/>
<path d="M37.4999 29.1667H39.5832L39.5833 27.0834L37.4999 27.0833V29.1667Z" fill="#FFFFF9"/>
<path d="M12.4999 29.1667H10.4166L10.4166 27.0834L12.4999 27.0833V29.1667Z" fill="#FFFFF9"/>
<path d="M27.0832 39.5833L29.1666 39.5834L29.1666 37.5L27.0832 37.5001L27.0832 39.5833Z" fill="#FFFFF9"/>
<path d="M22.9166 39.5833L20.8333 39.5834L20.8332 37.5L22.9166 37.5001L22.9166 39.5833Z" fill="#FFFFF9"/>
<path d="M31.2499 20.8333H29.1666V29.1667H31.2499V20.8333Z" fill="#FFFFF9"/>
<path d="M29.1666 20.8333L29.1666 18.7501H20.8333L20.8332 20.8333H29.1666Z" fill="#FFFFF9"/>
<path d="M20.8332 20.8333H18.7499V29.1667H20.8332V20.8333Z" fill="#FFFFF9"/>
<path d="M29.1666 31.25L29.1666 29.1667H20.8332L20.8333 31.25H29.1666Z" fill="#FFFFF9"/>
<path d="M14.5832 35.4167L14.5833 37.5H20.8332V35.4167L14.5832 35.4167Z" fill="#FFFFF9"/>
<path d="M12.4999 35.4167H14.5832V29.1667L12.4999 29.1667L12.4999 35.4167Z" fill="#FFFFF9"/>
<path d="M10.4166 22.9167L8.33325 22.9167V27.0834H10.4166L10.4166 22.9167Z" fill="#FFFFF9"/>
<path d="M12.4999 20.8333L14.5832 20.8334L14.5833 14.5834L12.4999 14.5833L12.4999 20.8333Z" fill="#FFFFF9"/>
<path d="M20.8332 14.5834V12.5001H14.5833V14.5834H20.8332Z" fill="#FFFFF9"/>
<path d="M27.0832 10.4167L27.0832 8.33334H22.9166L22.9166 10.4167H27.0832Z" fill="#FFFFF9"/>
<path d="M29.1666 12.5001V14.5834H35.4166V12.5001H29.1666Z" fill="#FFFFF9"/>
<path d="M35.4166 20.8334H37.4999V14.5833L35.4166 14.5834L35.4166 20.8334Z" fill="#FFFFF9"/>
<path d="M41.6666 22.9167L39.5832 22.9167L39.5833 27.0834H41.6666V22.9167Z" fill="#FFFFF9"/>
<path d="M35.4166 35.4167H37.4999L37.4999 29.1667L35.4166 29.1667V35.4167Z" fill="#FFFFF9"/>
<path d="M35.4166 37.5L35.4166 35.4167L29.1666 35.4167V37.5H35.4166Z" fill="#FFFFF9"/>
<path d="M27.0832 41.6667V39.5833H22.9166V41.6667H27.0832Z" fill="#FFFFF9"/>
<path fill-rule="evenodd" clip-rule="evenodd" d="M14.5832 14.5833H20.8332V12.5H22.9165V10.4167H27.0832V12.5H29.1665V14.5833H35.4165V20.8333H37.4998V22.9167H39.5832V27.0833H37.4998V29.1667H35.4165V35.4167H29.1665V37.5H27.0832V39.5833H22.9165V37.5H20.8332V35.4167H14.5832V29.1667H12.4998V27.0833H10.4165V22.9167H12.4998V20.8333H14.5832V14.5833ZM20.8332 18.75V20.8333H18.7498V29.1667H20.8332V31.25H29.1665V29.1667H31.2498V20.8333H29.1665V18.75H20.8332Z" fill="white"/>
</svg>
